<svg xmlns="http://www.w3.org/2000/svg" viewBox="0 0 200 437">
    <g fill="none" fill-rule="evenodd">
        <path fill="#BA0D37" d="M0 236.4h200v200H0zM0 0h200v158.452L155.556 226.4H44.444L0 158.452z"/>
        <g fill-rule="nonzero">
            <path fill="#FFF" d="M28.561 46.472V34.891h7.617v-7.306h-7.617v-4.187h8.731v-7.216H17.381v30.29h11.18zm21.782 0v-9.889h1.56l2.227 9.889h11.403L61.925 34.98c1.693-1.337 2.539-3.326 2.539-5.97v-5.255c0-2.436-.713-4.306-2.138-5.613-1.426-1.307-3.386-1.96-5.88-1.96H39.163v30.29h11.18zm1.649-16.481h-1.649v-6.994h1.649c.86 0 1.291.49 1.291 1.47v4.054c0 .98-.43 1.47-1.291 1.47zM88.25 46.472v-7.216H78.228v-4.544h8.597v-7.127h-8.597v-4.187h9.577v-7.216H67.047v30.29H88.25zm23.341 0v-7.216H101.57v-4.544h8.597v-7.127h-8.597v-4.187h9.577v-7.216H90.388v30.29h21.203zM34.041 80.3c2.672 0 4.728-.69 6.169-2.07 1.44-1.382 2.16-3.364 2.16-5.948v-2.984c0-2.168-.55-3.838-1.648-5.011-1.099-1.173-2.717-2.042-4.855-2.606l-5.836-1.425c-.623-.208-1.069-.453-1.336-.735-.267-.283-.4-.676-.4-1.18v-1.293c0-.98.43-1.47 1.29-1.47h.357c.832 0 1.248.49 1.248 1.47v2.495h10.913v-2.806c0-2.346-.668-4.173-2.005-5.48-1.336-1.306-3.34-1.96-6.013-1.96h-8.642c-2.643 0-4.692.684-6.147 2.05-1.455 1.366-2.182 3.37-2.182 6.013v2.316c0 2.168.534 3.868 1.603 5.1 1.07 1.233 2.673 2.117 4.81 2.651l5.97 1.47c.594.178 1.024.416 1.292.713.267.297.4.712.4 1.247v1.693c0 .98-.4 1.47-1.202 1.47h-.401c-.861 0-1.292-.49-1.292-1.47v-2.807h-11.18v3.119c0 2.345.675 4.172 2.026 5.478 1.352 1.307 3.349 1.96 5.992 1.96h8.908zm27.394 0c2.494 0 4.454-.66 5.88-1.982 1.425-1.321 2.138-3.23 2.138-5.724v-6.058H58.45v5.48c0 .98-.415 1.47-1.247 1.47h-.267c-.861 0-1.292-.49-1.292-1.47V57.582c0-.98.43-1.47 1.292-1.47h.223c.86 0 1.291.49 1.291 1.47v5.434h11.003v-6.013c0-2.495-.713-4.403-2.138-5.724-1.426-1.322-3.386-1.982-5.88-1.982h-8.953c-2.495 0-4.455.66-5.88 1.982-1.426 1.321-2.138 3.23-2.138 5.724v15.59c0 2.495.712 4.403 2.138 5.724 1.425 1.322 3.385 1.982 5.88 1.982h8.953zm21.604-.356V68.14h2.984v11.804H97.16v-30.29H86.023v11.047H83.04V49.654H71.903v30.29h11.136zm34.031.356c2.495 0 4.455-.66 5.88-1.982 1.426-1.321 2.138-3.23 2.138-5.724v-15.59c0-2.495-.712-4.403-2.138-5.724-1.425-1.322-3.385-1.982-5.88-1.982h-9.354c-2.494 0-4.454.66-5.88 1.982-1.425 1.321-2.138 3.23-2.138 5.724v15.59c0 2.495.713 4.403 2.138 5.724 1.426 1.322 3.386 1.982 5.88 1.982h9.354zm-4.454-6.815h-.446c-.86 0-1.291-.49-1.291-1.47V57.583c0-.98.43-1.47 1.291-1.47h.446c.861 0 1.292.49 1.292 1.47v14.432c0 .98-.43 1.47-1.292 1.47zm32.16 6.815c2.495 0 4.455-.66 5.88-1.982 1.426-1.321 2.139-3.23 2.139-5.724v-15.59c0-2.495-.713-4.403-2.138-5.724-1.426-1.322-3.386-1.982-5.88-1.982h-9.355c-2.494 0-4.454.66-5.88 1.982-1.425 1.321-2.137 3.23-2.137 5.724v15.59c0 2.495.712 4.403 2.138 5.724 1.425 1.322 3.385 1.982 5.88 1.982h9.354zm-4.454-6.815h-.445c-.861 0-1.292-.49-1.292-1.47V57.583c0-.98.43-1.47 1.292-1.47h.445c.861 0 1.292.49 1.292 1.47v14.432c0 .98-.43 1.47-1.292 1.47zm34.344 6.459v-7.706h-8.152V49.654h-11.18v30.29h19.332zM24.419 113.416V98.36l3.474 15.056h8.642l3.563-15.145v15.145h10.2v-30.29H36.98l-2.806 12.472-2.717-12.472H17.38v30.29h7.038zm49.845 0V106.2H64.24v-4.544h8.597V94.53h-8.597v-4.187h9.577v-7.216H53.061v30.29h21.203zm9.042 0l.668-4.187h5.568l.713 4.187h11.537l-6.86-30.29H81.97l-6.86 30.29h8.196zm5.212-10.423h-3.52l1.738-10.468 1.782 10.468zm34.076 10.423v-7.706h-8.152V83.126h-11.18v30.29h19.332zm18.62.356c2.672 0 4.728-.69 6.169-2.07 1.44-1.382 2.16-3.364 2.16-5.948v-2.984c0-2.168-.55-3.838-1.648-5.011-1.099-1.173-2.717-2.042-4.856-2.606l-5.835-1.425c-.623-.208-1.069-.453-1.336-.735-.267-.283-.401-.676-.401-1.18V90.52c0-.98.43-1.47 1.292-1.47h.356c.832 0 1.247.49 1.247 1.47v2.495h10.914v-2.806c0-2.346-.669-4.173-2.005-5.48-1.336-1.306-3.34-1.96-6.013-1.96h-8.642c-2.643 0-4.692.684-6.147 2.05-1.455 1.366-2.183 3.37-2.183 6.013v2.316c0 2.168.535 3.868 1.604 5.1 1.07 1.233 2.673 2.117 4.81 2.651l5.97 1.47c.594.178 1.024.416 1.291.713.268.297.401.712.401 1.247v1.693c0 .98-.4 1.47-1.202 1.47h-.401c-.861 0-1.292-.49-1.292-1.47v-2.807h-11.18v3.119c0 2.345.675 4.172 2.026 5.478 1.351 1.307 3.348 1.96 5.991 1.96h8.91z"/>
            <path fill="#F2C867" d="M20.189 135.744v-2.468l1.887-.56v3.028h2.053v-3.629l1.638-.477v-3.069l-1.638.477v-2.467l1.638-.477v-3.07l-1.638.478v-1.866h-2.053v2.467l-1.887.56v-3.027h-2.053v3.628l-1.638.477v3.07l1.638-.478v2.468l-1.638.477v3.069l1.638-.477v1.866h2.053zm0-5.537v-2.467l1.887-.56v2.468l-1.887.56zm12.98 5.537v-5.827h3.028v-2.695h-3.028v-2.904h3.546v-2.674h-7.299v14.1h3.753zm8.295 0v-5.018h.83l1.14 5.018h3.898l-1.597-5.557c.775-.54 1.162-1.396 1.162-2.572v-2.882c0-1.009-.28-1.776-.84-2.302-.56-.525-1.338-.787-2.333-.787h-6.013v14.1h3.753zm.954-7.548h-.954v-3.981h.954c.484 0 .725.27.725.808v2.364c0 .54-.241.81-.725.81zm13.52 7.548v-2.696h-3.92v-3.172h3.318v-2.654h-3.318v-2.904h3.712v-2.674h-7.465v14.1h7.673zm8.792 0v-2.696h-3.92v-3.172h3.318v-2.654H60.81v-2.904h3.712v-2.674h-7.465v14.1h7.673zm6.988.145c1.036 0 1.835-.276 2.395-.83.56-.552.84-1.34.84-2.363v-1.908c0-.912-.204-1.617-.612-2.115-.408-.498-1.04-.892-1.898-1.182l-1.99-.601c-.332-.125-.567-.27-.705-.436-.139-.166-.208-.394-.208-.684v-.995c0-.54.242-.81.726-.81h.228c.484 0 .726.27.726.81v1.68h3.67v-1.888c0-.981-.27-1.738-.808-2.27-.54-.533-1.328-.799-2.364-.799h-2.655c-1.05 0-1.855.273-2.415.82-.56.545-.84 1.337-.84 2.374v1.534c0 .913.197 1.635.59 2.167.395.532 1.013.93 1.857 1.192l2.073.643c.595.208.892.588.892 1.14v1.245c0 .539-.235.809-.705.809h-.249c-.484 0-.726-.27-.726-.81v-1.865h-3.732v2.073c0 .968.273 1.721.819 2.26.546.54 1.33.81 2.353.81h2.738zm10.368 0c.995 0 1.776-.266 2.343-.798s.85-1.31.85-2.333v-2.903h-3.712v2.633c0 .553-.242.83-.726.83h-.124c-.484 0-.726-.277-.726-.83V124.9c0-.553.242-.83.726-.83h.104c.497 0 .746.277.746.83v2.634h3.712v-2.903c0-1.023-.283-1.801-.85-2.333-.567-.533-1.348-.799-2.343-.799H79.41c-.996 0-1.773.266-2.333.799-.56.532-.84 1.31-.84 2.333v8.128c0 1.023.28 1.8.84 2.333.56.532 1.337.798 2.333.798h2.675zm8.253-.145v-5.951h1.7v5.951h3.753v-14.1H92.04v5.432h-1.7v-5.432h-3.754v14.1h3.754zm12.918.145c.982 0 1.756-.266 2.323-.798.566-.532.85-1.31.85-2.333v-8.128c0-1.023-.284-1.801-.85-2.333-.567-.533-1.341-.799-2.323-.799h-2.903c-.995 0-1.773.266-2.333.799-.56.532-.84 1.31-.84 2.333v8.128c0 1.023.28 1.8.84 2.333.56.532 1.338.798 2.333.798h2.903zm-1.306-2.571h-.29c-.484 0-.726-.277-.726-.83V124.9c0-.553.242-.83.725-.83h.29c.485 0 .726.277.726.83v7.59c0 .552-.241.829-.725.829zm11.881 2.571c.982 0 1.756-.266 2.323-.798s.85-1.31.85-2.333v-8.128c0-1.023-.283-1.801-.85-2.333-.567-.533-1.341-.799-2.323-.799h-2.903c-.995 0-1.773.266-2.332.799-.56.532-.84 1.31-.84 2.333v8.128c0 1.023.28 1.8.84 2.333.56.532 1.337.798 2.332.798h2.903zm-1.306-2.571h-.29c-.484 0-.726-.277-.726-.83V124.9c0-.553.242-.83.726-.83h.29c.484 0 .726.277.726.83v7.59c0 .552-.242.829-.726.829zm13.002 2.426v-2.779h-3.36v-11.321h-3.753v14.1h7.113zm3.525 0v-8.481l1.617 8.481h3.069l1.638-8.398v8.398h3.4v-14.1h-4.685l-1.37 7.34-1.305-7.34h-4.873v14.1h2.509zm18.89 0v-2.696h-3.919v-3.172h3.318v-2.654h-3.318v-2.904h3.712v-2.674h-7.465v14.1h7.672zm3.4 0l.353-2.322h2.53l.373 2.322h3.899l-2.883-14.1h-4.333l-2.883 14.1h2.945zm2.49-4.749h-1.743l.871-5.495.871 5.495zm12.607 4.749v-2.779h-3.36v-11.321h-3.753v14.1h7.113zm6.884.145c1.037 0 1.835-.276 2.395-.83.56-.552.84-1.34.84-2.363v-1.908c0-.912-.204-1.617-.612-2.115-.408-.498-1.04-.892-1.897-1.182l-1.99-.601c-.333-.125-.568-.27-.706-.436-.138-.166-.207-.394-.207-.684v-.995c0-.54.242-.81.726-.81h.228c.483 0 .725.27.725.81v1.68h3.67v-1.888c0-.981-.269-1.738-.808-2.27-.54-.533-1.327-.799-2.364-.799h-2.654c-1.05 0-1.856.273-2.416.82-.56.545-.84 1.337-.84 2.374v1.534c0 .913.197 1.635.591 2.167.394.532 1.013.93 1.856 1.192l2.074.643c.594.208.891.588.891 1.14v1.245c0 .539-.235.809-.705.809h-.248c-.484 0-.726-.27-.726-.81v-1.865h-3.733v2.073c0 .968.273 1.721.82 2.26.545.54 1.33.81 2.353.81h2.737z"/>
        </g>
        <path fill="#F2C867" fill-rule="nonzero" d="M23.092 268.472l2.737-14.1h-3.07l-1.326 9.372-1.348-9.372h-4.002l2.654 14.1h4.355zm11.218 0v-2.696h-3.92v-3.172h3.319v-2.654H30.39v-2.904h3.712v-2.674h-7.465v14.1h7.672zm3.815 0v-7.195l2.22 7.195h4.084v-14.1h-2.696v7.174l-2.218-7.174H35.43v14.1h2.695zm13.748.145c1.01 0 1.79-.27 2.343-.809.553-.539.83-1.313.83-2.322v-11.114h-3.753v10.865c0 .54-.242.809-.726.809h-.249c-.484 0-.726-.277-.726-.83v-10.844H45.84v11.114c0 1.01.28 1.783.84 2.322.56.54 1.337.81 2.333.81h2.861zm12.255-.145v-2.696H60.21v-3.172h3.318v-2.654h-3.318v-2.904h3.712v-2.674h-7.465v14.1h7.672zm6.988.145c1.037 0 1.835-.276 2.395-.83.56-.552.84-1.34.84-2.363v-1.908c0-.912-.204-1.617-.612-2.115-.407-.498-1.04-.892-1.897-1.182l-1.99-.601c-.332-.125-.567-.27-.706-.436-.138-.166-.207-.394-.207-.684v-.995c0-.54.242-.809.726-.809h.228c.484 0 .726.27.726.809v1.68h3.67v-1.888c0-.981-.27-1.738-.809-2.27-.539-.533-1.327-.799-2.364-.799h-2.654c-1.05 0-1.856.273-2.416.82-.56.545-.84 1.337-.84 2.374v1.534c0 .913.198 1.635.592 2.167.393.532 1.012.93 1.855 1.192l2.074.643c.594.208.892.588.892 1.14v1.245c0 .539-.235.809-.705.809h-.25c-.483 0-.725-.27-.725-.81v-1.865h-3.732v2.073c0 .968.273 1.721.819 2.26.546.54 1.33.81 2.353.81h2.737zm13.002 0c.981 0 1.755-.266 2.322-.798.567-.532.85-1.31.85-2.333v-8.128c0-1.023-.283-1.801-.85-2.333-.567-.533-1.34-.799-2.322-.799h-2.903c-.996 0-1.773.266-2.333.799-.56.532-.84 1.31-.84 2.333v8.128c0 1.023.28 1.8.84 2.333.56.532 1.337.798 2.333.798h2.903zm-1.307-2.571h-.29c-.484 0-.726-.277-.726-.83v-7.589c0-.553.242-.83.726-.83h.29c.484 0 .726.277.726.83v7.59c0 .552-.242.829-.726.829zm9.643 2.426v-5.827h3.027v-2.695h-3.027v-2.904h3.545v-2.674H88.7v14.1h3.754zm8.294 0v-5.827h3.027v-2.695h-3.027v-2.904h3.546v-2.674h-7.3v14.1h3.754zm12.214 0v-2.696h-3.92v-3.172h3.318v-2.654h-3.318v-2.904h3.712v-2.674h-7.465v14.1h7.673zm4.872 0v-5.018h.83l1.14 5.018h3.899l-1.597-5.557c.774-.54 1.161-1.396 1.161-2.572v-2.882c0-1.009-.28-1.776-.84-2.302-.56-.525-1.337-.787-2.332-.787h-6.014v14.1h3.753zm.954-7.548h-.954v-3.981h.954c.484 0 .726.27.726.808v2.364c0 .54-.242.81-.726.81zm9.601 7.548v-14.1h-3.753v14.1h3.753zm4.189 0v-7.195l2.219 7.195h4.085v-14.1h-2.696v7.174l-2.219-7.174h-4.085v14.1h2.696zm13.686.145c.995 0 1.776-.266 2.343-.798s.85-1.31.85-2.333v-4.603h-4.562v2.364h1.058v1.97c0 .29-.077.5-.229.632a.857.857 0 01-.58.197h-.373c-.484 0-.726-.277-.726-.83v-7.589c0-.553.242-.83.726-.83h.207c.484 0 .726.277.726.83v2.074h3.753v-2.343c0-1.023-.283-1.801-.85-2.333-.567-.533-1.348-.799-2.343-.799h-2.8c-.995 0-1.773.266-2.333.799-.56.532-.84 1.31-.84 2.333v8.128c0 1.023.28 1.8.84 2.333.56.532 1.338.798 2.333.798h2.8zM20.5 289.944v-5.827h3.027v-2.695H20.5v-2.904h3.546v-2.674h-7.3v14.1H20.5zm8.294 0v-5.018h.83l1.14 5.018h3.898l-1.596-5.557c.774-.54 1.16-1.396 1.16-2.572v-2.882c0-1.009-.279-1.776-.839-2.302-.56-.525-1.337-.787-2.333-.787h-6.013v14.1h3.753zm.954-7.548h-.954v-3.981h.954c.484 0 .726.27.726.808v2.364c0 .54-.242.81-.726.81zm13.52 7.548v-2.696h-3.92v-3.172h3.318v-2.654H39.35v-2.904h3.711v-2.674h-7.464v14.1h7.672zm8.792 0v-2.696h-3.92v-3.172h3.319v-2.654H48.14v-2.904h3.712v-2.674h-7.465v14.1h7.672zm6.034 0v-8.481l1.617 8.481h3.07l1.638-8.398v8.398h3.4v-14.1h-4.686l-1.369 7.34-1.306-7.34h-4.873v14.1h2.51zm18.89 0v-2.696h-3.919v-3.172h3.318v-2.654h-3.318v-2.904h3.712v-2.674h-7.465v14.1h7.673zm3.401 0l.353-2.322h2.53l.373 2.322h3.898l-2.882-14.1h-4.334l-2.882 14.1h2.944zm2.489-4.749h-1.742l.87-5.495.872 5.495zm12.607 4.749v-2.779h-3.36v-11.321H88.37v14.1h7.112zm6.884.145c1.037 0 1.836-.276 2.395-.83.56-.552.84-1.34.84-2.363v-1.908c0-.912-.204-1.617-.611-2.115-.408-.498-1.04-.892-1.898-1.182l-1.99-.601c-.332-.125-.567-.27-.705-.436-.139-.166-.208-.394-.208-.684v-.995c0-.54.242-.81.726-.81h.228c.484 0 .726.27.726.81v1.68h3.67v-1.888c0-.981-.27-1.738-.809-2.27-.539-.533-1.327-.799-2.364-.799h-2.654c-1.05 0-1.856.273-2.416.82-.56.545-.84 1.337-.84 2.374v1.534c0 .913.198 1.635.592 2.167.394.532 1.012.93 1.856 1.192l2.073.643c.595.208.892.588.892 1.14v1.245c0 .539-.235.809-.705.809h-.25c-.483 0-.725-.27-.725-.81v-1.865h-3.732v2.073c0 .968.273 1.721.819 2.26.546.54 1.33.81 2.353.81h2.737zm12.587-.145v-11.322h2.406v-2.778h-8.564v2.778h2.405v11.322h3.753zm9.31.145c.982 0 1.756-.266 2.323-.798s.85-1.31.85-2.333v-8.128c0-1.023-.283-1.801-.85-2.333-.567-.533-1.34-.799-2.322-.799h-2.903c-.996 0-1.773.266-2.333.799-.56.532-.84 1.31-.84 2.333v8.128c0 1.023.28 1.8.84 2.333.56.532 1.337.798 2.333.798h2.903zm-1.306-2.571h-.29c-.484 0-.726-.277-.726-.83V279.1c0-.553.242-.83.726-.83h.29c.484 0 .726.277.726.83v7.59c0 .552-.242.829-.726.829zm14.246 2.571c1.01 0 1.79-.27 2.343-.809.553-.539.83-1.313.83-2.322v-11.114h-3.754v10.865c0 .54-.242.809-.725.809h-.25c-.483 0-.725-.277-.725-.83v-10.844h-3.753v11.114c0 1.01.28 1.783.84 2.322.56.54 1.337.81 2.332.81h2.862zm8.294-.145v-6.656l2.074 6.656h4.064l-3.007-8.274 2.883-5.826h-3.588l-2.426 5.868v-5.868h-3.711v14.1h3.711zM22.615 311.561c1.037 0 1.835-.276 2.395-.83.56-.552.84-1.34.84-2.363v-1.908c0-.912-.204-1.617-.612-2.115-.408-.498-1.04-.892-1.897-1.182l-1.991-.601c-.332-.125-.567-.27-.705-.436-.138-.166-.207-.394-.207-.684v-.995c0-.54.241-.81.725-.81h.228c.484 0 .726.27.726.81v1.68h3.67v-1.888c0-.981-.27-1.738-.808-2.27-.54-.533-1.327-.799-2.364-.799H19.96c-1.051 0-1.856.273-2.416.82-.56.545-.84 1.337-.84 2.374v1.534c0 .913.197 1.635.591 2.167.394.532 1.013.93 1.856 1.192l2.073.643c.595.208.892.588.892 1.14v1.245c0 .539-.235.809-.705.809h-.249c-.484 0-.725-.27-.725-.81v-1.865h-3.733v2.073c0 .968.273 1.721.82 2.26.545.54 1.33.81 2.353.81h2.737zm10.368 0c.995 0 1.776-.266 2.343-.798s.85-1.31.85-2.333v-2.903h-3.712v2.633c0 .553-.242.83-.725.83h-.125c-.484 0-.726-.277-.726-.83v-7.589c0-.553.242-.83.726-.83h.104c.498 0 .746.277.746.83v2.634h3.712v-2.903c0-1.023-.283-1.801-.85-2.333-.567-.533-1.348-.799-2.343-.799h-2.675c-.995 0-1.773.266-2.333.799-.56.532-.84 1.31-.84 2.333v8.128c0 1.023.28 1.8.84 2.333.56.532 1.338.798 2.333.798h2.675zm8.253-.145v-5.951h1.7v5.951h3.753v-14.1h-3.753v5.432h-1.7v-5.432h-3.754v14.1h3.754zm12.918.145c.982 0 1.756-.266 2.323-.798.566-.532.85-1.31.85-2.333v-8.128c0-1.023-.284-1.801-.85-2.333-.567-.533-1.341-.799-2.323-.799h-2.903c-.995 0-1.773.266-2.333.799-.56.532-.84 1.31-.84 2.333v8.128c0 1.023.28 1.8.84 2.333.56.532 1.338.798 2.333.798h2.903zm-1.306-2.571h-.29c-.484 0-.726-.277-.726-.83v-7.589c0-.553.242-.83.726-.83h.29c.484 0 .726.277.726.83v7.59c0 .552-.242.829-.726.829zm11.882 2.571c.981 0 1.755-.266 2.322-.798.567-.532.85-1.31.85-2.333v-8.128c0-1.023-.283-1.801-.85-2.333-.567-.533-1.34-.799-2.322-.799h-2.903c-.996 0-1.773.266-2.333.799-.56.532-.84 1.31-.84 2.333v8.128c0 1.023.28 1.8.84 2.333.56.532 1.337.798 2.333.798h2.903zm-1.307-2.571h-.29c-.484 0-.726-.277-.726-.83v-7.589c0-.553.242-.83.726-.83h.29c.484 0 .726.277.726.83v7.59c0 .552-.242.829-.726.829zm13.002 2.426v-2.779h-3.36v-11.321h-3.753v14.1h7.113zm9.186.145c.995 0 1.776-.266 2.343-.798s.85-1.31.85-2.333v-2.903h-3.712v2.633c0 .553-.242.83-.725.83h-.125c-.484 0-.726-.277-.726-.83v-7.589c0-.553.242-.83.726-.83h.104c.498 0 .746.277.746.83v2.634h3.712v-2.903c0-1.023-.283-1.801-.85-2.333-.567-.533-1.348-.799-2.343-.799h-2.675c-.996 0-1.773.266-2.333.799-.56.532-.84 1.31-.84 2.333v8.128c0 1.023.28 1.8.84 2.333.56.532 1.337.798 2.333.798h2.675zm8.253-.145v-5.951h1.7v5.951h3.753v-14.1h-3.753v5.432h-1.7v-5.432H90.11v14.1h3.754zm10.679 0v-14.1h-3.753v14.1h3.753zm8.605 0v-2.779h-3.36v-11.321h-3.752v14.1h7.112zm7.03 0c.967 0 1.738-.263 2.312-.788.573-.525.86-1.3.86-2.322v-7.88c0-1.023-.287-1.797-.86-2.323-.574-.525-1.345-.787-2.312-.787h-6.014v14.1h6.014zm-1.307-2.571h-.954v-8.958h.954c.484 0 .726.27.726.808v7.341c0 .54-.242.809-.726.809zm9.643 2.571v-5.018h.829l1.14 5.018h3.899l-1.597-5.557c.774-.54 1.161-1.396 1.161-2.572v-2.882c0-1.009-.28-1.776-.84-2.302-.56-.525-1.337-.787-2.332-.787h-6.014v14.1h3.754zm.953-7.548h-.953v-3.981h.953c.484 0 .726.27.726.808v2.364c0 .54-.242.81-.726.81zm13.52 7.548v-2.696h-3.919v-3.172h3.318v-2.654h-3.318v-2.904h3.712v-2.674h-7.465v14.1h7.672zm3.816 0v-7.195l2.218 7.195h4.085v-14.1h-2.695v7.174l-2.219-7.174h-4.085v14.1h2.696zM22.76 332.888c.968 0 1.738-.263 2.312-.788.574-.525.86-1.3.86-2.322v-7.88c0-1.023-.286-1.797-.86-2.323-.574-.525-1.344-.787-2.312-.787h-6.014v14.1h6.014zm-1.306-2.571H20.5v-8.958h.954c.483 0 .725.27.725.808v7.341c0 .54-.242.809-.725.809zm11.84 2.716c1.009 0 1.79-.27 2.343-.809.553-.539.83-1.313.83-2.322v-11.114h-3.754v10.865c0 .54-.242.809-.726.809h-.248c-.484 0-.726-.277-.726-.83v-10.844H27.26v11.114c0 1.01.28 1.783.84 2.322.56.54 1.337.81 2.332.81h2.862zm8.336-.145v-5.018h.83l1.14 5.018h3.898l-1.597-5.557c.774-.54 1.162-1.396 1.162-2.572v-2.882c0-1.009-.28-1.776-.84-2.302-.56-.525-1.338-.787-2.333-.787h-6.014v14.1h3.754zm.954-7.548h-.954v-3.981h.954c.483 0 .725.27.725.808v2.364c0 .54-.242.81-.725.81zm9.6 7.548v-14.1h-3.753v14.1h3.753zm4.189 0v-7.195l2.219 7.195h4.085v-14.1H59.98v7.174l-2.219-7.174h-4.085v14.1h2.696zm13.686.145c.995 0 1.776-.266 2.343-.798s.85-1.31.85-2.333v-4.603H68.69v2.364h1.058v1.97c0 .29-.076.5-.228.632a.857.857 0 01-.581.197h-.373c-.484 0-.726-.277-.726-.83v-7.589c0-.553.242-.83.726-.83h.207c.484 0 .726.277.726.83v2.074h3.753v-2.344c0-1.022-.283-1.8-.85-2.332-.567-.533-1.348-.799-2.343-.799h-2.8c-.995 0-1.773.266-2.332.799-.56.532-.84 1.31-.84 2.333v8.128c0 1.023.28 1.8.84 2.333.56.532 1.337.798 2.332.798h2.8zm10.762-.145v-5.951h1.7v5.951h3.753v-14.1h-3.753v5.432h-1.7v-5.432h-3.753v14.1h3.753zm9.207 0l.352-2.322h2.53l.373 2.322h3.898l-2.882-14.1h-4.334l-2.882 14.1h2.945zm2.488-4.749h-1.742l.87-5.495.872 5.495zm12.607 4.749v-2.779h-3.359v-11.321h-3.753v14.1h7.112zm4.77 0v-5.827h3.027v-2.695h-3.027v-2.904h3.545v-2.674h-7.299v14.1h3.754zm10.969-4.458v-2.634h-6.366v2.634h6.366zm7.112 4.458v-11.322h2.406v-2.778h-8.564v2.778h2.405v11.322h3.753zm10.99 0v-2.696h-3.919v-3.172h3.318v-2.654h-3.318v-2.904h3.712v-2.674h-7.465v14.1h7.672zm4.873 0v-5.018h.83l1.14 5.018h3.899l-1.597-5.557c.774-.54 1.161-1.396 1.161-2.572v-2.882c0-1.009-.28-1.776-.84-2.302-.56-.525-1.337-.787-2.332-.787h-6.014v14.1h3.753zm.954-7.548h-.954v-3.981h.954c.484 0 .726.27.726.808v2.364c0 .54-.242.81-.726.81zm8.357 7.548v-8.481l1.617 8.481h3.07l1.637-8.398v8.398h3.401v-14.1h-4.686l-1.369 7.34-1.306-7.34h-4.873v14.1h2.509zM20.5 354.36v-5.951h1.7v5.951h3.753v-14.1H22.2v5.432h-1.7v-5.432h-3.754v14.1H20.5zm12.918.145c.982 0 1.756-.266 2.323-.798.566-.532.85-1.31.85-2.333v-8.129c0-1.022-.284-1.8-.85-2.332-.567-.533-1.341-.799-2.323-.799h-2.903c-.995 0-1.773.266-2.333.799-.56.532-.84 1.31-.84 2.332v8.129c0 1.023.28 1.8.84 2.333.56.532 1.338.798 2.333.798h2.903zm-1.306-2.571h-.29c-.484 0-.726-.277-.726-.83v-7.589c0-.553.242-.83.726-.83h.29c.484 0 .726.277.726.83v7.59c0 .552-.242.829-.726.829zm13.001 2.426v-2.779h-3.359V340.26h-3.753v14.1h7.112zm4.77 0v-14.1h-3.754v14.1h3.754zm7.506 0c.968 0 1.738-.263 2.312-.788.574-.525.86-1.3.86-2.322v-7.88c0-1.023-.286-1.797-.86-2.323-.574-.525-1.344-.787-2.312-.787h-6.013v14.1h6.013zm-1.306-2.571h-.954v-8.958h.954c.484 0 .725.27.725.808v7.341c0 .54-.241.809-.725.809zm8.17 2.571l.352-2.322h2.53l.373 2.322h3.899l-2.883-14.1H64.19l-2.882 14.1h2.945zm2.488-4.749h-1.742l.871-5.495.871 5.495zm11.612 4.749v-4.438l2.903-9.662h-3.069l-1.285 5.308-1.245-5.308h-4.085l2.904 9.662v4.438h3.877zm9.58.145c1.037 0 1.835-.276 2.395-.83.56-.552.84-1.34.84-2.363v-1.908c0-.912-.204-1.617-.612-2.115-.408-.498-1.04-.892-1.897-1.182l-1.99-.601c-.332-.125-.567-.27-.706-.436-.138-.166-.207-.394-.207-.684v-.995c0-.54.242-.81.726-.81h.228c.484 0 .726.27.726.81v1.68h3.67v-1.888c0-.981-.27-1.738-.809-2.27-.539-.533-1.327-.799-2.364-.799H85.28c-1.05 0-1.856.273-2.416.82-.56.545-.84 1.337-.84 2.374v1.534c0 .913.197 1.635.591 2.167.394.532 1.013.93 1.856 1.192l2.074.643c.594.208.892.588.892 1.14v1.245c0 .539-.235.809-.706.809h-.248c-.484 0-.726-.27-.726-.81v-1.865h-3.733v2.073c0 .968.273 1.721.82 2.26.546.54 1.33.81 2.353.81h2.737zm8.19-.145v-3.173h-3.628v3.173h3.629zm9.892 0c.968 0 1.718-.256 2.25-.767.532-.512.798-1.224.798-2.136v-2.198c0-.622-.152-1.127-.456-1.514-.304-.387-.733-.656-1.286-.808 1.106-.318 1.66-1.072 1.66-2.26v-1.514c0-.913-.267-1.625-.8-2.136-.531-.512-1.281-.767-2.249-.767H99.96v14.1h6.055zm-1.43-8.481h-.934v-3.152h.912c.526 0 .788.27.788.809v1.493c0 .304-.069.522-.207.653-.138.131-.325.197-.56.197zm-.022 6.013h-.912v-3.69h.933c.512 0 .767.276.767.829v2.032c0 .553-.262.83-.788.83zm13.541 2.468v-2.696h-3.919v-3.172h3.318v-2.655h-3.318v-2.903h3.712v-2.674h-7.465v14.1h7.672zm6.884.145c.996 0 1.777-.266 2.344-.798.566-.532.85-1.31.85-2.333v-2.903h-3.712v2.633c0 .553-.242.83-.726.83h-.124c-.484 0-.726-.277-.726-.83v-7.589c0-.553.242-.83.726-.83h.104c.497 0 .746.277.746.83v2.634h3.712v-2.904c0-1.022-.284-1.8-.85-2.332-.567-.533-1.348-.799-2.344-.799h-2.675c-.995 0-1.772.266-2.332.799-.56.532-.84 1.31-.84 2.332v8.129c0 1.023.28 1.8.84 2.333.56.532 1.337.798 2.332.798h2.675zm6.781-.145l.353-2.322h2.53l.373 2.322h3.898l-2.882-14.1h-4.334l-2.882 14.1h2.944zm2.488-4.749h-1.741l.87-5.495.871 5.495zm11.447 4.894c1.009 0 1.79-.27 2.343-.809.553-.539.83-1.313.83-2.322V340.26h-3.754v10.865c0 .54-.242.809-.726.809h-.249c-.483 0-.725-.277-.725-.83V340.26h-3.753v11.114c0 1.01.28 1.783.84 2.322.56.54 1.337.81 2.332.81h2.862zm10.45 0c1.037 0 1.836-.276 2.396-.83.56-.552.84-1.34.84-2.363v-1.908c0-.912-.204-1.617-.612-2.115-.408-.498-1.04-.892-1.898-1.182l-1.99-.601c-.332-.125-.567-.27-.705-.436-.139-.166-.208-.394-.208-.684v-.995c0-.54.242-.81.726-.81h.228c.484 0 .726.27.726.81v1.68h3.67v-1.888c0-.981-.27-1.738-.808-2.27-.54-.533-1.328-.799-2.364-.799H153.5c-1.05 0-1.855.273-2.415.82-.56.545-.84 1.337-.84 2.374v1.534c0 .913.197 1.635.59 2.167.395.532 1.013.93 1.857 1.192l2.073.643c.595.208.892.588.892 1.14v1.245c0 .539-.235.809-.705.809h-.249c-.484 0-.726-.27-.726-.81v-1.865h-3.732v2.073c0 .968.273 1.721.819 2.26.546.54 1.33.81 2.353.81h2.738zm12.276-.145v-2.696h-3.919v-3.172h3.318v-2.655h-3.318v-2.903h3.712v-2.674h-7.465v14.1h7.672zM19.442 375.832v-7.195l2.219 7.195h4.085v-14.1H23.05v7.174l-2.219-7.174h-4.085v14.1h2.696zm13.79.145c.981 0 1.755-.266 2.322-.798.567-.532.85-1.31.85-2.333v-8.129c0-1.022-.283-1.8-.85-2.332-.567-.533-1.34-.799-2.322-.799h-2.903c-.996 0-1.773.266-2.333.799-.56.532-.84 1.31-.84 2.332v8.129c0 1.023.28 1.8.84 2.333.56.532 1.337.798 2.333.798h2.903zm-1.307-2.571h-.29c-.484 0-.726-.277-.726-.83v-7.589c0-.553.242-.83.726-.83h.29c.484 0 .726.277.726.83v7.59c0 .552-.242.829-.726.829zm14.06 2.571c.995 0 1.776-.266 2.342-.798.567-.532.85-1.31.85-2.333v-2.903h-3.711v2.633c0 .553-.242.83-.726.83h-.124c-.484 0-.726-.277-.726-.83v-7.589c0-.553.242-.83.726-.83h.103c.498 0 .747.277.747.83v2.634h3.712v-2.904c0-1.022-.284-1.8-.85-2.332-.567-.533-1.348-.799-2.344-.799H43.31c-.995 0-1.773.266-2.332.799-.56.532-.84 1.31-.84 2.332v8.129c0 1.023.28 1.8.84 2.333.56.532 1.337.798 2.332.798h2.675zm8.252-.145v-5.951h1.7v5.951h3.754v-14.1h-3.753v5.432h-1.7v-5.432h-3.754v14.1h3.753zm10.68 0v-14.1h-3.754v14.1h3.753zm8.605 0v-2.779h-3.36v-11.321H66.41v14.1h7.113zm7.03 0c.967 0 1.738-.263 2.311-.788.574-.525.86-1.3.86-2.322v-7.88c0-1.023-.286-1.797-.86-2.323-.573-.525-1.344-.787-2.312-.787h-6.013v14.1h6.013zm-1.307-2.571h-.954v-8.958h.954c.484 0 .726.27.726.808v7.341c0 .54-.242.809-.726.809zm14.162 2.716c1.037 0 1.836-.276 2.395-.83.56-.552.84-1.34.84-2.363v-1.908c0-.912-.204-1.617-.611-2.115-.408-.498-1.04-.892-1.898-1.182l-1.99-.601c-.332-.125-.567-.27-.705-.436-.139-.166-.208-.394-.208-.684v-.995c0-.54.242-.81.726-.81h.228c.484 0 .726.27.726.81v1.68h3.67v-1.888c0-.981-.27-1.738-.809-2.27-.539-.533-1.327-.799-2.364-.799h-2.654c-1.05 0-1.856.273-2.415.82-.56.545-.84 1.337-.84 2.374v1.534c0 .913.197 1.635.59 2.167.395.532 1.013.93 1.857 1.192l2.073.643c.595.208.892.588.892 1.14v1.245c0 .539-.235.809-.705.809h-.249c-.484 0-.726-.27-.726-.81v-1.865h-3.732v2.073c0 .968.273 1.721.819 2.26.546.54 1.33.81 2.353.81h2.737zm8.357-.145v-5.951h1.7v5.951h3.754v-14.1h-3.754v5.432h-1.7v-5.432h-3.753v14.1h3.753zm12.919.145c.981 0 1.755-.266 2.322-.798.567-.532.85-1.31.85-2.333v-8.129c0-1.022-.283-1.8-.85-2.332-.567-.533-1.34-.799-2.322-.799h-2.903c-.996 0-1.773.266-2.333.799-.56.532-.84 1.31-.84 2.332v8.129c0 1.023.28 1.8.84 2.333.56.532 1.337.798 2.333.798h2.903zm-1.307-2.571h-.29c-.484 0-.726-.277-.726-.83v-7.589c0-.553.242-.83.726-.83h.29c.484 0 .726.277.726.83v7.59c0 .552-.242.829-.726.829zm11.84 2.571c1.01 0 1.79-.27 2.344-.809.553-.539.83-1.313.83-2.322v-11.114h-3.754v10.865c0 .54-.242.809-.726.809h-.249c-.484 0-.725-.277-.725-.83v-10.844h-3.754v11.114c0 1.01.28 1.783.84 2.322.56.54 1.338.81 2.333.81h2.862zm11.696-.145v-2.779h-3.36v-11.321H129.8v14.1h7.113zm7.03 0c.967 0 1.737-.263 2.311-.788.574-.525.86-1.3.86-2.322v-7.88c0-1.023-.286-1.797-.86-2.323-.574-.525-1.344-.787-2.312-.787h-6.013v14.1h6.013zm-1.307-2.571h-.954v-8.958h.954c.484 0 .726.27.726.808v7.341c0 .54-.242.809-.726.809zm-120 24.188c.996 0 1.777-.266 2.344-.798.566-.532.85-1.31.85-2.333v-4.603h-4.562v2.364h1.057v1.97c0 .29-.076.5-.228.632a.857.857 0 01-.58.197h-.373c-.484 0-.726-.277-.726-.83v-7.589c0-.553.242-.83.726-.83h.207c.484 0 .726.277.726.83v2.074h3.753v-2.344c0-1.022-.284-1.8-.85-2.332-.567-.533-1.348-.799-2.343-.799h-2.8c-.995 0-1.773.266-2.333.799-.56.532-.84 1.31-.84 2.332v8.129c0 1.023.28 1.8.84 2.333.56.532 1.338.798 2.333.798h2.8zm10.597 0c.981 0 1.755-.266 2.322-.798.567-.532.85-1.31.85-2.333v-8.129c0-1.022-.283-1.8-.85-2.332-.567-.533-1.34-.799-2.322-.799h-2.903c-.996 0-1.773.266-2.333.799-.56.532-.84 1.31-.84 2.332v8.129c0 1.023.28 1.8.84 2.333.56.532 1.337.798 2.333.798h2.903zm-1.307-2.571h-.29c-.484 0-.726-.277-.726-.83v-7.589c0-.553.242-.83.726-.83h.29c.484 0 .726.277.726.83v7.59c0 .552-.242.829-.726.829zm12.048 2.426v-5.951h1.7v5.951h3.753v-14.1h-3.753v5.432h-1.7v-5.432H40.22v14.1h3.753zm12.877.145c1.01 0 1.79-.27 2.343-.809.553-.539.83-1.313.83-2.322v-11.114h-3.754v10.865c0 .54-.242.809-.725.809h-.25c-.483 0-.725-.277-.725-.83v-10.844h-3.753v11.114c0 1.01.28 1.783.84 2.322.56.54 1.337.81 2.332.81h2.862zm7.278-.145v-7.195l2.219 7.195h4.085v-14.1h-2.696v7.174l-2.218-7.174h-4.085v14.1h2.695zm13.686.145c.995 0 1.776-.266 2.343-.798s.85-1.31.85-2.333v-4.603h-4.562v2.364h1.058v1.97c0 .29-.076.5-.228.632a.857.857 0 01-.58.197h-.374c-.484 0-.726-.277-.726-.83v-7.589c0-.553.242-.83.726-.83h.207c.484 0 .726.277.726.83v2.074h3.753v-2.344c0-1.022-.283-1.8-.85-2.332-.567-.533-1.348-.799-2.343-.799h-2.8c-.995 0-1.772.266-2.332.799-.56.532-.84 1.31-.84 2.332v8.129c0 1.023.28 1.8.84 2.333.56.532 1.337.798 2.333.798h2.799zm8.357-.145v-5.018H87l1.14 5.018h3.898l-1.597-5.557c.774-.54 1.161-1.396 1.161-2.572v-2.882c0-1.009-.28-1.776-.84-2.302-.56-.525-1.337-.787-2.332-.787h-6.014v14.1h3.754zm.953-7.548h-.953v-3.981h.953c.484 0 .726.27.726.808v2.364c0 .54-.242.81-.726.81zm11.965 7.548v-4.438l2.903-9.662h-3.069l-1.285 5.308-1.245-5.308h-4.085l2.904 9.662v4.438h3.877zm7.3 0v-3.173h-3.63v3.173h3.63z"/>
    </g>
</svg>