<svg xmlns="http://www.w3.org/2000/svg" width="161" height="15"><g fill="none"><path fill="#F2C867" d="M4.189 14.744v-2.468l1.887-.56v3.028h2.053v-3.63l1.638-.476V7.569l-1.638.477V5.578l1.638-.477V2.032l-1.638.477V.643H6.076v2.468l-1.887.56V.643H2.136v3.629l-1.638.477v3.069l1.638-.477v2.467l-1.638.477v3.07l1.638-.478v1.867H4.19zm0-5.537V6.74l1.887-.56v2.467l-1.887.56z"/><path fill="#FFF" d="M17.17 14.744V8.917h3.027V6.22H17.17V3.318h3.546V.643h-7.3v14.1h3.754zm8.294 0V9.726h.83l1.14 5.018h3.898l-1.596-5.558c.774-.539 1.161-1.396 1.161-2.57V3.732c0-1.01-.28-1.777-.84-2.302-.56-.525-1.337-.788-2.333-.788h-6.013v14.1h3.753zm.954-7.548h-.954V3.214h.954c.484 0 .726.27.726.81v2.363c0 .54-.242.809-.726.809zm13.52 7.548v-2.696h-3.92V8.875h3.319V6.221h-3.318V3.318h3.712V.643h-7.465v14.1h7.672zm8.792 0v-2.696h-3.92V8.875h3.319V6.221H44.81V3.318h3.712V.643h-7.465v14.1h7.672z"/><path fill="#F2C867" d="M55.718 14.889c1.037 0 1.835-.277 2.395-.83.56-.553.84-1.34.84-2.364V9.788c0-.913-.204-1.618-.612-2.115-.408-.498-1.04-.892-1.897-1.182l-1.99-.602c-.333-.124-.568-.27-.706-.435-.138-.166-.207-.394-.207-.684v-.996c0-.539.242-.808.725-.808h.229c.483 0 .725.27.725.808v1.68h3.67V3.567c0-.982-.269-1.738-.808-2.27-.54-.533-1.327-.799-2.364-.799h-2.654c-1.05 0-1.856.273-2.416.82-.56.545-.84 1.337-.84 2.373v1.535c0 .912.197 1.634.591 2.167.394.532 1.013.93 1.856 1.192l2.074.643c.594.207.891.587.891 1.14v1.244c0 .54-.235.81-.705.81h-.249c-.483 0-.725-.27-.725-.81V9.746h-3.733v2.074c0 .968.273 1.72.82 2.26.545.54 1.33.809 2.353.809h2.737zm10.368 0c.995 0 1.776-.266 2.343-.799.567-.532.85-1.31.85-2.332V8.855h-3.711v2.633c0 .553-.242.83-.726.83h-.125c-.483 0-.725-.277-.725-.83v-7.59c0-.552.242-.829.725-.829h.104c.498 0 .747.277.747.83v2.633h3.711V3.63c0-1.023-.283-1.8-.85-2.333-.567-.532-1.348-.798-2.343-.798h-2.675c-.995 0-1.773.266-2.333.798-.56.533-.84 1.31-.84 2.333v8.129c0 1.023.28 1.8.84 2.332.56.533 1.338.799 2.333.799h2.675zm8.253-.145V8.792h1.7v5.952h3.753V.644H76.04v5.432h-1.7V.643h-3.753v14.1h3.753zm12.918.145c.982 0 1.756-.266 2.323-.799.567-.532.85-1.31.85-2.332V3.629c0-1.023-.283-1.8-.85-2.333-.567-.532-1.341-.798-2.323-.798h-2.903c-.995 0-1.773.266-2.332.798-.56.533-.84 1.31-.84 2.333v8.129c0 1.023.28 1.8.84 2.332.56.533 1.337.799 2.332.799h2.903zm-1.306-2.571h-.29c-.484 0-.726-.277-.726-.83v-7.59c0-.552.242-.829.726-.829h.29c.484 0 .726.277.726.83v7.59c0 .552-.242.829-.726.829zm11.882 2.57c.981 0 1.755-.265 2.322-.798.567-.532.85-1.31.85-2.332V3.629c0-1.023-.283-1.8-.85-2.333-.567-.532-1.34-.798-2.322-.798H94.93c-.996 0-1.773.266-2.333.798-.56.533-.84 1.31-.84 2.333v8.129c0 1.023.28 1.8.84 2.332.56.533 1.337.799 2.333.799h2.903zm-1.307-2.57h-.29c-.484 0-.726-.277-.726-.83v-7.59c0-.552.242-.829.726-.829h.29c.484 0 .726.277.726.83v7.59c0 .552-.242.829-.726.829zm13.002 2.426v-2.779h-3.36V.643h-3.753v14.1h7.113z"/><path fill="#FFF" d="M113.053 14.744V6.263l1.617 8.48h3.07l1.637-8.397v8.398h3.401V.644h-4.686l-1.369 7.34-1.306-7.34h-4.873v14.1h2.509zm18.89 0v-2.696h-3.919V8.875h3.318V6.221h-3.318V3.318h3.712V.643h-7.465v14.1h7.673zm3.401 0l.353-2.323h2.53l.373 2.323h3.898l-2.882-14.1h-4.334l-2.882 14.1h2.944zm2.489-4.749h-1.742l.87-5.495.872 5.495zm12.607 4.749v-2.779h-3.36V.643h-3.752v14.1h7.112zm6.884.145c1.037 0 1.836-.277 2.395-.83.56-.553.84-1.34.84-2.364V9.788c0-.913-.204-1.618-.612-2.115-.407-.498-1.04-.892-1.897-1.182l-1.99-.602c-.332-.124-.567-.27-.706-.435-.138-.166-.207-.394-.207-.684v-.996c0-.539.242-.808.726-.808h.228c.484 0 .726.27.726.808v1.68h3.67V3.567c0-.982-.27-1.738-.809-2.27-.539-.533-1.327-.799-2.364-.799h-2.654c-1.05 0-1.856.273-2.416.82-.56.545-.84 1.337-.84 2.373v1.535c0 .912.198 1.634.592 2.167.394.532 1.012.93 1.855 1.192l2.074.643c.594.207.892.587.892 1.14v1.244c0 .54-.235.81-.705.81h-.25c-.483 0-.725-.27-.725-.81V9.746h-3.732v2.074c0 .968.273 1.72.819 2.26.546.54 1.33.809 2.353.809h2.737z"/></g></svg>