<svg xmlns="http://www.w3.org/2000/svg" width="421" height="317"><g fill="none"><path fill="#BA0D37" d="M31.954 79.812V49.43h19.983V30.264H31.954V19.279H54.86V.348H2.623v79.464h29.331zm57.144 0V53.87h4.09l5.844 25.942h29.915l-9.465-30.15c4.44-3.505 6.66-8.725 6.66-15.658v-13.79c0-6.388-1.869-11.296-5.608-14.724-3.74-3.428-8.882-5.142-15.426-5.142H59.767v79.464h29.331zm4.324-43.238h-4.324V18.228h4.324c2.26 0 3.39 1.285 3.39 3.856v10.634c0 2.571-1.13 3.856-3.39 3.856zm95.124 43.238v-18.93h-26.294v-11.92h22.554V30.263h-22.554V19.279h25.125V.348h-54.456v79.464h55.625zm61.234 0v-18.93h-26.293v-11.92h22.553V30.263h-22.553V19.279h25.124V.348h-54.456v79.464h55.625zM46.328 168.56c7.012 0 12.407-1.812 16.185-5.434 3.778-3.623 5.668-8.823 5.668-15.601v-7.83c0-5.687-1.442-10.069-4.324-13.146-2.883-3.078-7.129-5.356-12.738-6.837l-15.308-3.74c-1.636-.544-2.805-1.187-3.506-1.927-.701-.74-1.052-1.773-1.052-3.097v-3.389c0-2.57 1.13-3.856 3.39-3.856h.934c2.181 0 3.272 1.285 3.272 3.856v6.544h28.63v-7.362c0-6.155-1.752-10.946-5.258-14.374-3.506-3.428-8.765-5.141-15.776-5.141h-22.67c-6.934 0-12.31 1.791-16.127 5.375-3.818 3.584-5.727 8.842-5.727 15.776v6.077c0 5.687 1.403 10.147 4.207 13.38 2.805 3.233 7.012 5.55 12.621 6.953l15.66 3.857c1.557.467 2.687 1.09 3.388 1.87.701.778 1.052 1.87 1.052 3.271v4.441c0 2.571-1.052 3.856-3.155 3.856h-1.052c-2.26 0-3.389-1.285-3.389-3.856v-7.362H1.921v8.18c0 6.155 1.773 10.946 5.318 14.374 3.544 3.428 8.783 5.142 15.717 5.142h23.372zm71.868 0c6.545 0 11.686-1.734 15.426-5.2 3.74-3.468 5.61-8.473 5.61-15.017V132.45h-28.865v14.374c0 2.57-1.09 3.856-3.272 3.856h-.701c-2.26 0-3.39-1.285-3.39-3.856V108.96c0-2.57 1.13-3.856 3.39-3.856h.584c2.26 0 3.389 1.285 3.389 3.856v14.257h28.864v-15.776c0-6.544-1.87-11.55-5.61-15.016-3.739-3.467-8.88-5.2-15.425-5.2H94.708c-6.544 0-11.686 1.733-15.426 5.2s-5.609 8.472-5.609 15.016v40.9c0 6.545 1.87 11.55 5.61 15.017 3.739 3.467 8.88 5.2 15.425 5.2h23.488zm56.677-.935v-30.968h7.83v30.968h29.215V88.16h-29.215v28.981h-7.83v-28.98h-29.215v79.464h29.215zm89.28.935c6.545 0 11.687-1.734 15.426-5.2 3.74-3.468 5.61-8.473 5.61-15.017v-40.9c0-6.545-1.87-11.55-5.61-15.017-3.74-3.467-8.881-5.2-15.425-5.2h-24.54c-6.545 0-11.687 1.733-15.426 5.2-3.74 3.467-5.61 8.472-5.61 15.016v40.9c0 6.545 1.87 11.55 5.61 15.017 3.74 3.467 8.881 5.2 15.425 5.2h24.54zm-11.685-17.88h-1.169c-2.26 0-3.389-1.285-3.389-3.856V108.96c0-2.57 1.13-3.856 3.39-3.856h1.168c2.259 0 3.389 1.285 3.389 3.856v37.863c0 2.57-1.13 3.856-3.39 3.856zm84.372 17.88c6.544 0 11.686-1.734 15.426-5.2 3.739-3.468 5.609-8.473 5.609-15.017v-40.9c0-6.545-1.87-11.55-5.61-15.017-3.739-3.467-8.88-5.2-15.425-5.2H312.3c-6.544 0-11.686 1.733-15.426 5.2s-5.609 8.472-5.609 15.016v40.9c0 6.545 1.87 11.55 5.61 15.017 3.739 3.467 8.88 5.2 15.425 5.2h24.54zm-11.686-17.88h-1.168c-2.26 0-3.39-1.285-3.39-3.856V108.96c0-2.57 1.13-3.856 3.39-3.856h1.168c2.26 0 3.39 1.285 3.39 3.856v37.863c0 2.57-1.13 3.856-3.39 3.856zm90.099 16.945v-20.217h-21.386V88.16h-29.331v79.465h50.717zM21.086 255.437v-39.498l9.115 39.498h22.671l9.349-39.732v39.732h26.76v-79.464h-34.94l-7.362 32.72-7.129-32.72H2.623v79.464h18.463zm130.766 0v-18.931h-26.293v-11.92h22.553V205.89H125.56v-10.985h25.124v-18.931H96.227v79.464h55.625zm23.722 0l1.753-10.985h14.608l1.87 10.985h30.266l-17.996-79.464h-34.006l-17.997 79.464h21.502zm13.673-27.345h-9.232l4.558-27.462 4.674 27.462zm89.397 27.345V235.22H257.26v-59.247h-29.332v79.464h50.717zm48.847.935c7.012 0 12.407-1.811 16.185-5.434 3.779-3.623 5.668-8.823 5.668-15.6v-7.83c0-5.687-1.441-10.07-4.324-13.147-2.882-3.077-7.128-5.356-12.737-6.836l-15.309-3.74c-1.636-.545-2.805-1.188-3.506-1.928-.7-.74-1.051-1.772-1.051-3.097v-3.389c0-2.57 1.13-3.856 3.388-3.856h.935c2.182 0 3.272 1.285 3.272 3.856v6.544h28.63v-7.362c0-6.154-1.752-10.945-5.258-14.373-3.506-3.428-8.764-5.142-15.776-5.142h-22.67c-6.934 0-12.31 1.792-16.127 5.375-3.817 3.584-5.726 8.843-5.726 15.776v6.077c0 5.687 1.402 10.147 4.207 13.38 2.804 3.234 7.011 5.551 12.62 6.954l15.66 3.856c1.558.467 2.687 1.09 3.389 1.87.7.779 1.051 1.87 1.051 3.272v4.44c0 2.571-1.051 3.857-3.155 3.857h-1.052c-2.259 0-3.388-1.286-3.388-3.857v-7.362h-29.332v8.18c0 6.155 1.772 10.946 5.317 14.374 3.545 3.428 8.784 5.142 15.718 5.142h23.371z"/><path fill="#F2C867" d="M9.989 315.8v-6.474l4.95-1.468v7.942h5.386v-9.52l4.297-1.251v-8.051l-4.297 1.25v-6.473l4.297-1.251v-8.051l-4.297 1.251v-4.896h-5.386v6.474l-4.95 1.468v-7.942H4.603v9.52l-4.297 1.251v8.051l4.297-1.25v6.473l-4.297 1.251v8.051l4.297-1.251v4.896H9.99zm0-14.525v-6.473l4.95-1.47v6.474l-4.95 1.47zM44.043 315.8v-15.286h7.943v-7.072h-7.943v-7.616h9.303v-7.018h-19.15V315.8h9.847zm21.76 0v-13.165h2.176l2.992 13.165h10.227l-4.188-14.58c2.03-1.414 3.046-3.662 3.046-6.745v-7.561c0-2.648-.734-4.66-2.203-6.039-1.469-1.378-3.509-2.067-6.12-2.067H55.957V315.8h9.846zm2.503-19.802h-2.503v-10.444h2.503c1.269 0 1.904.707 1.904 2.121v6.202c0 1.414-.635 2.121-1.904 2.121zm35.468 19.802v-7.072H93.493v-8.323h8.704v-6.963h-8.704v-7.616h9.737v-7.018H83.646V315.8h20.128zm23.066 0v-7.072h-10.282v-8.323h8.704v-6.963h-8.704v-7.616h9.738v-7.018h-19.584V315.8h20.128zm18.333.38c2.72 0 4.814-.725 6.283-2.175 1.469-1.45 2.203-3.518 2.203-6.202v-5.005c0-2.393-.535-4.243-1.605-5.548-1.07-1.306-2.729-2.34-4.977-3.101l-5.223-1.578c-.87-.326-1.487-.707-1.85-1.142-.362-.435-.543-1.034-.543-1.795v-2.612c0-1.414.634-2.121 1.904-2.121h.598c1.27 0 1.904.707 1.904 2.121v4.407h9.629v-4.95c0-2.576-.707-4.561-2.122-5.957-1.414-1.397-3.481-2.095-6.201-2.095h-6.963c-2.757 0-4.87.716-6.338 2.149-1.469 1.433-2.203 3.509-2.203 6.229v4.025c0 2.394.517 4.289 1.55 5.685 1.034 1.396 2.657 2.44 4.869 3.128l5.44 1.687c1.56.544 2.34 1.54 2.34 2.992v3.264c0 1.414-.617 2.121-1.85 2.121h-.653c-1.27 0-1.904-.707-1.904-2.121v-4.896h-9.792v5.44c0 2.538.716 4.515 2.149 5.93 1.432 1.414 3.49 2.12 6.174 2.12h7.18zm27.2 0c2.611 0 4.66-.697 6.147-2.094 1.487-1.396 2.23-3.436 2.23-6.12v-7.616h-9.737v6.91c0 1.45-.635 2.175-1.904 2.175h-.327c-1.269 0-1.904-.725-1.904-2.176v-19.91c0-1.45.635-2.176 1.904-2.176h.272c1.306 0 1.959.725 1.959 2.176v6.909h9.737v-7.616c0-2.684-.743-4.724-2.23-6.12-1.487-1.397-3.536-2.095-6.147-2.095h-7.018c-2.611 0-4.651.698-6.12 2.095-1.469 1.396-2.203 3.436-2.203 6.12v21.324c0 2.684.734 4.724 2.203 6.12 1.469 1.397 3.509 2.095 6.12 2.095h7.018zm21.651-.38v-15.613h4.46V315.8h9.847v-36.992h-9.846v14.253h-4.461v-14.253h-9.846V315.8h9.846zm33.891.38c2.575 0 4.606-.697 6.093-2.094 1.487-1.396 2.23-3.436 2.23-6.12v-21.324c0-2.684-.743-4.724-2.23-6.12-1.487-1.397-3.518-2.095-6.093-2.095H220.3c-2.611 0-4.651.698-6.12 2.095-1.469 1.396-2.203 3.436-2.203 6.12v21.324c0 2.684.734 4.724 2.203 6.12 1.469 1.397 3.509 2.095 6.12 2.095h7.616zm-3.427-6.745h-.762c-1.269 0-1.904-.725-1.904-2.176v-19.91c0-1.45.635-2.176 1.904-2.176h.762c1.27 0 1.904.725 1.904 2.176v19.91c0 1.45-.635 2.176-1.904 2.176zm31.171 6.746c2.575 0 4.606-.698 6.093-2.095 1.487-1.396 2.23-3.436 2.23-6.12v-21.324c0-2.684-.743-4.724-2.23-6.12-1.487-1.397-3.518-2.095-6.093-2.095h-7.616c-2.611 0-4.651.698-6.12 2.095-1.469 1.396-2.203 3.436-2.203 6.12v21.324c0 2.684.734 4.724 2.203 6.12 1.469 1.397 3.509 2.095 6.12 2.095h7.616zm-3.427-6.746h-.762c-1.269 0-1.904-.725-1.904-2.176v-19.91c0-1.45.635-2.176 1.904-2.176h.762c1.27 0 1.904.725 1.904 2.176v19.91c0 1.45-.635 2.176-1.904 2.176zm34.109 6.365v-7.29h-8.813v-29.702h-9.846V315.8h18.659zm9.248 0v-22.25l4.243 22.25h8.051l4.298-22.032V315.8h8.921v-36.992h-12.294l-3.59 19.258-3.428-19.258h-12.784V315.8h6.583zm49.558 0v-7.072h-10.281v-8.323h8.704v-6.963h-8.704v-7.616h9.737v-7.018H325.02V315.8h20.128zm8.922 0l.925-6.093h6.636l.98 6.093h10.227l-7.562-36.992h-11.37l-7.561 36.992h7.725zm6.528-12.458h-4.57l2.285-14.416 2.285 14.416zm33.075 12.458v-7.29h-8.813v-29.702h-9.846V315.8h18.659zm18.06.38c2.72 0 4.815-.725 6.284-2.175 1.469-1.45 2.203-3.518 2.203-6.202v-5.005c0-2.393-.535-4.243-1.605-5.548-1.07-1.306-2.729-2.34-4.977-3.101l-5.223-1.578c-.87-.326-1.487-.707-1.85-1.142-.362-.435-.543-1.034-.543-1.795v-2.612c0-1.414.634-2.121 1.904-2.121h.598c1.27 0 1.904.707 1.904 2.121v4.407h9.629v-4.95c0-2.576-.707-4.561-2.122-5.957-1.414-1.397-3.481-2.095-6.201-2.095h-6.963c-2.757 0-4.87.716-6.338 2.149-1.469 1.433-2.203 3.509-2.203 6.229v4.025c0 2.394.517 4.289 1.55 5.685 1.034 1.396 2.657 2.44 4.869 3.128l5.44 1.687c1.56.544 2.34 1.54 2.34 2.992v3.264c0 1.414-.617 2.121-1.85 2.121h-.653c-1.27 0-1.904-.707-1.904-2.121v-4.896h-9.792v5.44c0 2.538.716 4.515 2.149 5.93 1.432 1.414 3.49 2.12 6.174 2.12h7.18z"/></g></svg>