<svg xmlns="http://www.w3.org/2000/svg" width="29" height="22"><path fill="#FFF" d="M6.256 21.456c1.835 0 3.403-.619 4.704-1.856 1.301-1.237 1.952-3.115 1.952-5.632-1.237-.213-2.155-.683-2.752-1.408a3.815 3.815 0 01-.896-2.496c0-1.024.256-2.09.768-3.2.512-1.11 1.45-2.347 2.816-3.712L10.672.4c-3.67 2.432-6.368 4.757-8.096 6.976-1.728 2.219-2.592 4.65-2.592 7.296 0 2.048.587 3.69 1.76 4.928 1.173 1.237 2.677 1.856 4.512 1.856zm15.168 0c1.835 0 3.403-.619 4.704-1.856 1.301-1.237 1.952-3.115 1.952-5.632-1.237-.213-2.155-.683-2.752-1.408a3.815 3.815 0 01-.896-2.496c0-1.024.256-2.09.768-3.2.512-1.11 1.45-2.347 2.816-3.712L25.84.4c-3.67 2.432-6.368 4.757-8.096 6.976-1.728 2.219-2.592 4.65-2.592 7.296 0 2.048.587 3.69 1.76 4.928 1.173 1.237 2.677 1.856 4.512 1.856z"/></svg>