<svg xmlns="http://www.w3.org/2000/svg" width="306" height="80"><g fill="none"><path fill="#FFF" d="M6.511 14.617c.968 0 1.725-.26 2.27-.778.547-.518.82-1.282.82-2.291V9.329c0-1.147-.519-1.894-1.556-2.24.457-.18.81-.449 1.058-.808.249-.36.373-.816.373-1.369v-1.68c0-.967-.273-1.71-.819-2.228C8.111.485 7.354.226 6.387.226H3.919c-.981 0-1.756.266-2.322.798-.567.533-.85 1.31-.85 2.333v1.41h3.545V3.44c0-.54.242-.809.726-.809h.124c.47 0 .705.27.705.81v1.7c0 .539-.214.808-.642.808H3.276v2.385h2.012c.428 0 .642.276.642.83v2.239c0 .539-.242.808-.725.808h-.187c-.484 0-.726-.276-.726-.829V9.557H.622v1.929c0 1.023.283 1.8.85 2.332.567.533 1.355.799 2.364.799h2.675zm10.12 0c.98 0 1.755-.266 2.322-.799.566-.532.85-1.31.85-2.332V3.357c0-1.023-.284-1.8-.85-2.333-.567-.532-1.341-.798-2.323-.798h-2.592c-.981 0-1.755.266-2.322.798-.567.533-.85 1.31-.85 2.333v8.129c0 1.023.283 1.8.85 2.332.567.533 1.34.799 2.322.799h2.592zM14.39 8.52V3.357c0-.29.072-.501.217-.632.146-.132.336-.197.57-.197h.312c.484 0 .746.235.788.705L14.39 8.52zm1.099 3.795h-.311c-.484 0-.74-.235-.768-.705l1.867-5.288v5.164c0 .29-.073.5-.218.632-.145.131-.335.197-.57.197zm11.363 2.302c.982 0 1.756-.266 2.322-.799.567-.532.85-1.31.85-2.332V3.357c0-1.023-.283-1.8-.85-2.333-.566-.532-1.34-.798-2.322-.798h-2.592c-.981 0-1.756.266-2.322.798-.567.533-.85 1.31-.85 2.333v8.129c0 1.023.283 1.8.85 2.332.566.533 1.34.799 2.322.799h2.592zm-2.24-6.097V3.357c0-.29.073-.501.218-.632.145-.132.336-.197.57-.197h.312c.483 0 .746.235.788.705L24.614 8.52zm1.1 3.795h-.311c-.484 0-.74-.235-.768-.705l1.867-5.288v5.164c0 .29-.073.5-.218.632-.145.131-.335.197-.57.197zm14.453 2.157l2.737-14.1h-3.07l-1.326 9.372L37.159.37h-4.002l2.654 14.1h4.355zm11.218 0v-2.696h-3.92V8.603h3.318V5.95h-3.317V3.046h3.711V.371h-7.465v14.1h7.673zm3.815 0V7.276l2.219 7.196h4.085V.372h-2.696v7.174L56.588.37h-4.085v14.1H55.2zm13.748.145c1.01 0 1.79-.27 2.343-.809.553-.54.83-1.313.83-2.322V.37h-3.753v10.866c0 .539-.242.809-.726.809h-.25c-.483 0-.725-.277-.725-.83V.371h-3.753v11.115c0 1.009.28 1.783.84 2.322.56.54 1.337.809 2.333.809h2.861zm12.255-.145v-2.696h-3.919V8.603h3.318V5.95h-3.318V3.046h3.712V.371H73.53v14.1h7.672zm6.988.145c1.037 0 1.835-.277 2.395-.83.56-.553.84-1.34.84-2.364V9.516c0-.913-.204-1.618-.612-2.115-.408-.498-1.04-.892-1.897-1.182l-1.99-.602c-.333-.124-.568-.27-.706-.435-.138-.166-.207-.394-.207-.684v-.996c0-.539.242-.808.726-.808h.228c.484 0 .725.27.725.808v1.68h3.67V3.295c0-.982-.269-1.738-.808-2.27-.54-.533-1.327-.799-2.364-.799h-2.654c-1.05 0-1.856.273-2.416.82-.56.545-.84 1.337-.84 2.373v1.535c0 .912.197 1.634.591 2.167.394.532 1.013.93 1.856 1.192l2.074.643c.594.207.891.587.891 1.14v1.244c0 .54-.235.81-.705.81h-.248c-.484 0-.726-.27-.726-.81V9.474H82.28v2.074c0 .968.273 1.72.82 2.26.545.54 1.33.809 2.353.809h2.737z"/><path fill="#F2C867" d="M101.192 14.617c.981 0 1.755-.266 2.322-.799.567-.532.85-1.31.85-2.332V3.357c0-1.023-.283-1.8-.85-2.333-.567-.532-1.34-.798-2.322-.798h-2.903c-.996 0-1.773.266-2.333.798-.56.533-.84 1.31-.84 2.333v8.129c0 1.023.28 1.8.84 2.332.56.533 1.337.799 2.333.799h2.903zm-1.307-2.571h-.29c-.484 0-.726-.277-.726-.83v-7.59c0-.552.242-.829.726-.829h.29c.484 0 .726.277.726.83v7.59c0 .552-.242.829-.726.829zm9.642 2.426V8.645h3.028V5.949h-3.028V3.046h3.546V.371h-7.299v14.1h3.753zm8.295 0V8.645h3.027V5.949h-3.027V3.046h3.546V.371h-7.3v14.1h3.754zm12.213 0v-2.696h-3.919V8.603h3.318V5.95h-3.318V3.046h3.712V.371h-7.465v14.1h7.672zm4.873 0V9.454h.83l1.14 5.018h3.899l-1.597-5.558c.774-.539 1.161-1.396 1.161-2.57V3.46c0-1.01-.28-1.777-.84-2.302-.56-.525-1.337-.788-2.332-.788h-6.014v14.1h3.753zm.954-7.548h-.954V2.942h.954c.484 0 .726.27.726.81v2.363c0 .54-.242.809-.726.809zm9.601 7.548V.372h-3.753v14.1h3.753zm4.189 0V7.276l2.218 7.196h4.085V.372h-2.695v7.174L151.04.37h-4.084v14.1h2.696zm13.685.145c.996 0 1.777-.266 2.344-.799.566-.532.85-1.31.85-2.332V6.882h-4.562v2.364h1.057v1.97c0 .29-.076.501-.228.633a.857.857 0 01-.58.197h-.374c-.483 0-.725-.277-.725-.83v-7.59c0-.552.242-.829.725-.829h.208c.484 0 .726.277.726.83V5.7h3.753V3.357c0-1.023-.284-1.8-.85-2.333-.567-.532-1.348-.798-2.344-.798h-2.799c-.995 0-1.773.266-2.333.798-.56.533-.84 1.31-.84 2.333v8.129c0 1.023.28 1.8.84 2.332.56.533 1.338.799 2.333.799h2.8zm10.762-.145V8.645h3.028V5.949h-3.028V3.046h3.546V.371h-7.299v14.1h3.753zm8.295 0V9.454h.83l1.14 5.018h3.898l-1.597-5.558c.775-.539 1.162-1.396 1.162-2.57V3.46c0-1.01-.28-1.777-.84-2.302-.56-.525-1.338-.788-2.333-.788h-6.013v14.1h3.753zm.954-7.548h-.954V2.942h.954c.483 0 .725.27.725.81v2.363c0 .54-.242.809-.725.809zm13.52 7.548v-2.696h-3.92V8.603h3.318V5.95h-3.318V3.046h3.712V.371h-7.465v14.1h7.672zm8.792 0v-2.696h-3.92V8.603h3.318V5.95h-3.318V3.046h3.712V.371h-7.465v14.1h7.673zm6.034 0V5.99l1.617 8.48h3.07l1.637-8.397v8.398h3.4V.372h-4.685l-1.369 7.34-1.306-7.34h-4.873v14.1h2.509zm18.89 0v-2.696h-3.919V8.603h3.318V5.95h-3.318V3.046h3.712V.371h-7.465v14.1h7.672zm3.4 0l.353-2.323h2.53l.373 2.323h3.899l-2.882-14.1h-4.334l-2.883 14.1h2.945zm2.49-4.749h-1.743l.871-5.495.871 5.495zm12.607 4.749v-2.779h-3.36V.371h-3.753v14.1h7.113zm6.884.145c1.037 0 1.835-.277 2.395-.83.56-.553.84-1.34.84-2.364V9.516c0-.913-.204-1.618-.612-2.115-.408-.498-1.04-.892-1.897-1.182l-1.99-.602c-.333-.124-.568-.27-.706-.435-.138-.166-.207-.394-.207-.684v-.996c0-.539.242-.808.726-.808h.228c.484 0 .725.27.725.808v1.68h3.67V3.295c0-.982-.269-1.738-.808-2.27-.54-.533-1.327-.799-2.364-.799h-2.654c-1.05 0-1.856.273-2.416.82-.56.545-.84 1.337-.84 2.373v1.535c0 .912.197 1.634.591 2.167.394.532 1.013.93 1.856 1.192l2.074.643c.594.207.891.587.891 1.14v1.244c0 .54-.235.81-.705.81h-.248c-.484 0-.726-.27-.726-.81V9.474h-3.733v2.074c0 .968.273 1.72.82 2.26.545.54 1.33.809 2.353.809h2.737zm12.587-.145V3.15h2.405V.37h-8.564V3.15h2.406v11.322h3.753zm9.31.145c.982 0 1.756-.266 2.323-.799.567-.532.85-1.31.85-2.332V3.357c0-1.023-.283-1.8-.85-2.333-.567-.532-1.341-.798-2.323-.798h-2.903c-.995 0-1.773.266-2.333.798-.56.533-.84 1.31-.84 2.333v8.129c0 1.023.28 1.8.84 2.332.56.533 1.338.799 2.333.799h2.903zm-1.306-2.571h-.29c-.484 0-.726-.277-.726-.83v-7.59c0-.552.242-.829.726-.829h.29c.484 0 .726.277.726.83v7.59c0 .552-.242.829-.726.829zm14.246 2.57c1.009 0 1.79-.269 2.343-.808.553-.54.83-1.313.83-2.322V.37h-3.754v10.866c0 .539-.242.809-.726.809h-.249c-.483 0-.725-.277-.725-.83V.371h-3.754v11.115c0 1.009.28 1.783.84 2.322.56.54 1.338.809 2.333.809h2.862zm8.294-.144V7.815l2.074 6.657h4.064l-3.007-8.274L305.11.371h-3.587l-2.426 5.868V.371h-3.712v14.1h3.712zM6.615 36.089c1.037 0 1.835-.277 2.395-.83.56-.553.84-1.34.84-2.364v-1.907c0-.913-.204-1.618-.612-2.115-.408-.498-1.04-.892-1.898-1.182l-1.99-.602c-.332-.124-.567-.27-.705-.435-.138-.166-.208-.394-.208-.684v-.996c0-.539.242-.808.726-.808h.228c.484 0 .726.27.726.808v1.68h3.67v-1.887c0-.982-.27-1.738-.808-2.27-.54-.533-1.327-.799-2.364-.799H3.96c-1.05 0-1.855.273-2.415.82-.56.545-.84 1.337-.84 2.373v1.535c0 .912.197 1.634.59 2.167.395.532 1.014.93 1.857 1.192l2.073.643c.595.207.892.587.892 1.14v1.244c0 .54-.235.81-.705.81h-.249c-.484 0-.726-.27-.726-.81v-1.866H.705v2.074c0 .968.273 1.72.819 2.26.546.54 1.33.809 2.354.809h2.737zm10.368 0c.995 0 1.776-.266 2.343-.799.567-.532.85-1.31.85-2.332v-2.903h-3.712v2.633c0 .553-.242.83-.725.83h-.125c-.484 0-.726-.277-.726-.83v-7.59c0-.552.242-.829.726-.829h.104c.497 0 .746.277.746.83v2.633h3.712V24.83c0-1.023-.283-1.8-.85-2.333-.567-.532-1.348-.798-2.343-.798h-2.675c-.996 0-1.773.266-2.333.798-.56.533-.84 1.31-.84 2.333v8.129c0 1.023.28 1.8.84 2.332.56.533 1.337.799 2.333.799h2.675zm8.253-.145v-5.952h1.7v5.952h3.753v-14.1h-3.753v5.432h-1.7v-5.433h-3.754v14.1h3.754zm12.918.145c.982 0 1.756-.266 2.323-.799.566-.532.85-1.31.85-2.332v-8.129c0-1.023-.284-1.8-.85-2.333-.567-.532-1.341-.798-2.323-.798h-2.903c-.995 0-1.773.266-2.333.798-.56.533-.84 1.31-.84 2.333v8.129c0 1.023.28 1.8.84 2.332.56.533 1.338.799 2.333.799h2.903zm-1.306-2.571h-.29c-.484 0-.726-.277-.726-.83v-7.59c0-.552.242-.829.725-.829h.29c.485 0 .727.277.727.83v7.59c0 .552-.242.829-.726.829zm11.882 2.57c.981 0 1.755-.265 2.322-.798.567-.532.85-1.31.85-2.332v-8.129c0-1.023-.283-1.8-.85-2.333-.567-.532-1.341-.798-2.322-.798h-2.904c-.995 0-1.772.266-2.332.798-.56.533-.84 1.31-.84 2.333v8.129c0 1.023.28 1.8.84 2.332.56.533 1.337.799 2.332.799h2.904zm-1.307-2.57h-.29c-.484 0-.726-.277-.726-.83v-7.59c0-.552.242-.829.726-.829h.29c.484 0 .726.277.726.83v7.59c0 .552-.242.829-.726.829zm13.002 2.426v-2.779h-3.36V21.843h-3.753v14.1h7.113zm9.186.145c.995 0 1.776-.266 2.343-.799.567-.532.85-1.31.85-2.332v-2.903h-3.712v2.633c0 .553-.242.83-.725.83h-.125c-.484 0-.726-.277-.726-.83v-7.59c0-.552.242-.829.726-.829h.104c.497 0 .746.277.746.83v2.633h3.712V24.83c0-1.023-.283-1.8-.85-2.333-.567-.532-1.348-.798-2.343-.798h-2.675c-.996 0-1.773.266-2.333.798-.56.533-.84 1.31-.84 2.333v8.129c0 1.023.28 1.8.84 2.332.56.533 1.337.799 2.333.799h2.675zm8.253-.145v-5.952h1.7v5.952h3.753v-14.1h-3.753v5.432h-1.7v-5.433H74.11v14.1h3.754zm10.679 0v-14.1h-3.754v14.1h3.754zm8.605 0v-2.779h-3.36V21.843h-3.752v14.1h7.112zm7.03 0c.967 0 1.738-.263 2.312-.788.573-.526.86-1.3.86-2.323v-7.88c0-1.022-.287-1.797-.86-2.322-.574-.525-1.345-.788-2.312-.788h-6.014v14.1h6.014zm-1.307-2.572h-.954v-8.958h.954c.484 0 .726.27.726.81v7.34c0 .539-.242.808-.726.808zm9.642 2.572v-5.018h.83l1.14 5.018h3.899l-1.597-5.558c.774-.539 1.161-1.396 1.161-2.57v-2.883c0-1.01-.28-1.777-.84-2.302-.56-.525-1.337-.788-2.332-.788h-6.014v14.1h3.753zm.954-7.548h-.954v-3.982h.954c.484 0 .726.27.726.81v2.363c0 .54-.242.809-.726.809zm13.52 7.548v-2.696h-3.919v-3.173h3.318v-2.654h-3.318v-2.903h3.712v-2.675h-7.465v14.1h7.672zm3.816 0v-7.196l2.218 7.196h4.085v-14.1h-2.695v7.174l-2.22-7.175h-4.084v14.1h2.696zm16.215 0c.968 0 1.739-.263 2.312-.788.574-.526.86-1.3.86-2.323v-7.88c0-1.022-.286-1.797-.86-2.322-.573-.525-1.344-.788-2.312-.788h-6.013v14.1h6.013zm-1.306-2.572h-.954v-8.958h.954c.484 0 .726.27.726.81v7.34c0 .539-.242.808-.726.808zm11.84 2.717c1.01 0 1.79-.27 2.343-.809.553-.54.83-1.313.83-2.322V21.843h-3.754V32.71c0 .539-.241.809-.725.809h-.25c-.483 0-.725-.277-.725-.83V21.843h-3.753v11.115c0 1.009.28 1.783.84 2.322.56.54 1.337.809 2.332.809h2.862zm8.336-.145v-5.018h.83l1.14 5.018h3.898l-1.596-5.558c.774-.539 1.16-1.396 1.16-2.57v-2.883c0-1.01-.28-1.777-.84-2.302-.559-.525-1.337-.788-2.332-.788h-6.013v14.1h3.753zm.954-7.548h-.954v-3.982h.954c.484 0 .726.27.726.81v2.363c0 .54-.242.809-.726.809zm9.6 7.548v-14.1h-3.753v14.1h3.754zm4.19 0v-7.196l2.218 7.196h4.085v-14.1h-2.696v7.174l-2.218-7.175h-4.085v14.1h2.695zm13.685.145c.995 0 1.776-.266 2.343-.799.567-.532.85-1.31.85-2.332v-4.604h-4.562v2.364h1.058v1.97c0 .29-.076.501-.228.633a.857.857 0 01-.58.197h-.374c-.484 0-.726-.277-.726-.83v-7.59c0-.552.242-.829.726-.829h.207c.484 0 .726.277.726.83v2.073h3.753V24.83c0-1.023-.283-1.8-.85-2.333-.567-.532-1.348-.798-2.343-.798h-2.8c-.995 0-1.772.266-2.332.798-.56.533-.84 1.31-.84 2.333v8.129c0 1.023.28 1.8.84 2.332.56.533 1.337.799 2.333.799h2.799zm10.762-.145v-5.952h1.7v5.952h3.754v-14.1h-3.754v5.432h-1.7v-5.433h-3.753v14.1h3.753zm9.207 0l.352-2.323h2.53l.373 2.323h3.899l-2.883-14.1h-4.333l-2.883 14.1h2.945zm2.488-4.749h-1.742l.871-5.495.871 5.495zm12.608 4.749v-2.779h-3.36V21.843h-3.753v14.1h7.113zm4.769 0v-5.827h3.027V27.42h-3.027v-2.903h3.546v-2.675h-7.3v14.1h3.754zm10.97-4.459v-2.633h-6.367v2.633h6.366zm7.112 4.459V24.622h2.405v-2.779h-8.564v2.779h2.405v11.322h3.754zm10.99 0v-2.696h-3.92v-3.173h3.318v-2.654h-3.317v-2.903h3.711v-2.675h-7.465v14.1h7.673zm4.873 0v-5.018h.83l1.14 5.018h3.898l-1.597-5.558c.774-.539 1.161-1.396 1.161-2.57v-2.883c0-1.01-.28-1.777-.84-2.302-.56-.525-1.337-.788-2.332-.788h-6.014v14.1h3.754zm.954-7.548h-.954v-3.982h.954c.483 0 .725.27.725.81v2.363c0 .54-.242.809-.725.809zm8.356 7.548v-8.481l1.618 8.48h3.068l1.639-8.397v8.398h3.4v-14.1h-4.686l-1.369 7.34-1.306-7.34h-4.873v14.1h2.51zM4.5 57.416v-5.952h1.7v5.952h3.753v-14.1H6.2v5.432H4.5v-5.433H.746v14.1H4.5zm12.918.145c.982 0 1.756-.266 2.323-.799.566-.532.85-1.31.85-2.332V46.3c0-1.023-.284-1.8-.85-2.333-.567-.532-1.341-.798-2.323-.798h-2.903c-.995 0-1.773.266-2.333.798-.56.533-.84 1.31-.84 2.333v8.129c0 1.023.28 1.8.84 2.332.56.533 1.338.799 2.333.799h2.903zm-1.306-2.571h-.29c-.484 0-.726-.277-.726-.83v-7.59c0-.552.242-.829.725-.829h.29c.485 0 .727.277.727.83v7.59c0 .552-.242.829-.726.829zm13.001 2.426v-2.779h-3.359V43.315h-3.753v14.1h7.112zm4.77 0v-14.1h-3.754v14.1h3.754zm7.506 0c.968 0 1.738-.263 2.312-.788.574-.526.86-1.3.86-2.323v-7.88c0-1.022-.286-1.797-.86-2.322-.574-.525-1.344-.788-2.312-.788h-6.013v14.1h6.013zm-1.306-2.572h-.954v-8.958h.954c.483 0 .725.27.725.81v7.34c0 .539-.242.808-.725.808zm8.17 2.572l.352-2.323h2.53l.373 2.323h3.899l-2.883-14.1H48.19l-2.882 14.1h2.945zm2.488-4.749h-1.742l.871-5.495.87 5.495zm11.612 4.749v-4.438l2.903-9.663h-3.069l-1.285 5.309-1.245-5.309h-4.085l2.903 9.663v4.438h3.878zm9.58.145c1.037 0 1.835-.277 2.395-.83.56-.553.84-1.34.84-2.364V52.46c0-.913-.204-1.618-.612-2.115-.408-.498-1.04-.892-1.897-1.182l-1.99-.602c-.333-.124-.568-.27-.706-.435-.138-.166-.207-.394-.207-.684v-.996c0-.539.242-.808.726-.808h.228c.484 0 .725.27.725.808v1.68h3.67v-1.887c0-.982-.269-1.738-.808-2.27-.54-.533-1.327-.799-2.364-.799H69.28c-1.05 0-1.856.273-2.416.82-.56.545-.84 1.337-.84 2.373v1.535c0 .912.197 1.634.591 2.167.394.532 1.013.93 1.856 1.192l2.074.643c.594.207.891.587.891 1.14v1.244c0 .54-.235.81-.705.81h-.248c-.484 0-.726-.27-.726-.81v-1.866h-3.733v2.074c0 .968.273 1.72.82 2.26.545.54 1.33.809 2.353.809h2.737zm8.19-.145v-3.173h-3.628v3.173h3.629zm9.892 0c.968 0 1.718-.256 2.25-.768.532-.511.798-1.223.798-2.135v-2.198c0-.623-.152-1.127-.456-1.514-.304-.387-.733-.657-1.286-.809 1.106-.318 1.66-1.071 1.66-2.26v-1.514c0-.912-.267-1.624-.8-2.136-.531-.511-1.281-.767-2.249-.767H83.96v14.1h6.055zm-1.43-8.481h-.934v-3.152h.912c.526 0 .788.27.788.808v1.493c0 .305-.069.522-.207.654-.138.13-.325.197-.56.197zm-.022 6.013h-.912v-3.691h.933c.512 0 .767.277.767.83v2.032c0 .553-.262.829-.788.829zm13.541 2.468V54.72h-3.92v-3.173h3.319v-2.654h-3.318V45.99h3.712v-2.675h-7.465v14.1h7.672zm6.884.145c.996 0 1.777-.266 2.344-.799.566-.532.85-1.31.85-2.332v-2.903h-3.712v2.633c0 .553-.242.83-.726.83h-.124c-.484 0-.726-.277-.726-.83v-7.59c0-.552.242-.829.726-.829h.103c.498 0 .747.277.747.83v2.633h3.712v-2.903c0-1.023-.284-1.8-.85-2.333-.567-.532-1.348-.798-2.344-.798h-2.675c-.995 0-1.773.266-2.332.798-.56.533-.84 1.31-.84 2.333v8.129c0 1.023.28 1.8.84 2.332.56.533 1.337.799 2.332.799h2.675zm6.781-.145l.353-2.323h2.53l.373 2.323h3.898l-2.882-14.1h-4.334l-2.883 14.1h2.945zm2.488-4.749h-1.741l.87-5.495.871 5.495zm11.447 4.894c1.009 0 1.79-.27 2.343-.809.553-.54.83-1.313.83-2.322V43.315h-3.754v10.866c0 .539-.242.809-.726.809h-.249c-.483 0-.725-.277-.725-.83V43.315h-3.754V54.43c0 1.009.28 1.783.84 2.322.56.54 1.338.809 2.333.809h2.862zm10.45 0c1.037 0 1.836-.277 2.396-.83.56-.553.84-1.34.84-2.364V52.46c0-.913-.205-1.618-.612-2.115-.408-.498-1.04-.892-1.898-1.182l-1.99-.602c-.332-.124-.567-.27-.705-.435-.139-.166-.208-.394-.208-.684v-.996c0-.539.242-.808.726-.808h.228c.484 0 .726.27.726.808v1.68h3.67v-1.887c0-.982-.27-1.738-.809-2.27-.539-.533-1.327-.799-2.363-.799H137.5c-1.05 0-1.856.273-2.415.82-.56.545-.84 1.337-.84 2.373v1.535c0 .912.197 1.634.59 2.167.395.532 1.013.93 1.857 1.192l2.073.643c.595.207.892.587.892 1.14v1.244c0 .54-.235.81-.705.81h-.249c-.484 0-.726-.27-.726-.81v-1.866h-3.732v2.074c0 .968.273 1.72.819 2.26.546.54 1.33.809 2.353.809h2.738zm12.276-.145V54.72h-3.919v-3.173h3.318v-2.654h-3.318V45.99h3.712v-2.675h-7.465v14.1h7.672zm6.221 0V50.22l2.219 7.196h4.085v-14.1h-2.696v7.174l-2.219-7.175h-4.085v14.1h2.696zm13.79.145c.981 0 1.755-.266 2.322-.799.567-.532.85-1.31.85-2.332V46.3c0-1.023-.283-1.8-.85-2.333-.567-.532-1.341-.798-2.323-.798h-2.903c-.995 0-1.772.266-2.332.798-.56.533-.84 1.31-.84 2.333v8.129c0 1.023.28 1.8.84 2.332.56.533 1.337.799 2.332.799h2.903zm-1.307-2.571h-.29c-.484 0-.726-.277-.726-.83v-7.59c0-.552.242-.829.726-.829h.29c.484 0 .726.277.726.83v7.59c0 .552-.242.829-.726.829zm14.06 2.57c.994 0 1.776-.265 2.342-.798.567-.532.85-1.31.85-2.332v-2.903h-3.711v2.633c0 .553-.242.83-.726.83h-.124c-.484 0-.726-.277-.726-.83v-7.59c0-.552.242-.829.726-.829h.103c.498 0 .747.277.747.83v2.633h3.711v-2.903c0-1.023-.283-1.8-.85-2.333-.566-.532-1.348-.798-2.343-.798h-2.675c-.995 0-1.773.266-2.333.798-.56.533-.84 1.31-.84 2.333v8.129c0 1.023.28 1.8.84 2.332.56.533 1.338.799 2.333.799h2.675zm8.252-.144v-5.952h1.7v5.952h3.754v-14.1h-3.754v5.432h-1.7v-5.433h-3.753v14.1h3.753zm10.68 0v-14.1h-3.754v14.1h3.753zm8.605 0v-2.779h-3.36V43.315h-3.753v14.1h7.113zm7.029 0c.968 0 1.738-.263 2.312-.788.574-.526.86-1.3.86-2.323v-7.88c0-1.022-.286-1.797-.86-2.322-.574-.525-1.344-.788-2.312-.788h-6.013v14.1h6.013zm-1.306-2.572h-.954v-8.958h.954c.484 0 .725.27.725.81v7.34c0 .539-.241.808-.725.808zm14.162 2.717c1.037 0 1.835-.277 2.395-.83.56-.553.84-1.34.84-2.364V52.46c0-.913-.204-1.618-.612-2.115-.407-.498-1.04-.892-1.897-1.182l-1.99-.602c-.332-.124-.567-.27-.706-.435-.138-.166-.207-.394-.207-.684v-.996c0-.539.242-.808.726-.808h.228c.484 0 .726.27.726.808v1.68h3.67v-1.887c0-.982-.27-1.738-.809-2.27-.539-.533-1.327-.799-2.364-.799h-2.654c-1.05 0-1.856.273-2.416.82-.56.545-.84 1.337-.84 2.373v1.535c0 .912.198 1.634.592 2.167.394.532 1.012.93 1.855 1.192l2.074.643c.594.207.892.587.892 1.14v1.244c0 .54-.235.81-.705.81h-.25c-.483 0-.725-.27-.725-.81v-1.866h-3.732v2.074c0 .968.273 1.72.819 2.26.546.54 1.33.809 2.353.809h2.737zm8.357-.145v-5.952h1.7v5.952h3.754v-14.1h-3.754v5.432h-1.7v-5.433h-3.753v14.1h3.753zm12.918.145c.982 0 1.756-.266 2.323-.799.567-.532.85-1.31.85-2.332V46.3c0-1.023-.283-1.8-.85-2.333-.567-.532-1.341-.798-2.323-.798h-2.903c-.995 0-1.772.266-2.332.798-.56.533-.84 1.31-.84 2.333v8.129c0 1.023.28 1.8.84 2.332.56.533 1.337.799 2.332.799h2.903zm-1.306-2.571h-.29c-.484 0-.726-.277-.726-.83v-7.59c0-.552.242-.829.726-.829h.29c.484 0 .726.277.726.83v7.59c0 .552-.242.829-.726.829zm11.84 2.57c1.01 0 1.79-.269 2.344-.808.553-.54.829-1.313.829-2.322V43.315h-3.753v10.866c0 .539-.242.809-.726.809h-.249c-.484 0-.726-.277-.726-.83V43.315h-3.753V54.43c0 1.009.28 1.783.84 2.322.56.54 1.337.809 2.333.809h2.861zm11.695-.144v-2.779h-3.359V43.315h-3.753v14.1h7.112zm7.03 0c.968 0 1.738-.263 2.312-.788.574-.526.86-1.3.86-2.323v-7.88c0-1.022-.286-1.797-.86-2.322-.574-.525-1.344-.788-2.312-.788h-6.013v14.1h6.013zm-1.306-2.572h-.954v-8.958h.954c.483 0 .725.27.725.81v7.34c0 .539-.242.808-.725.808zM6.635 79.033c.996 0 1.777-.266 2.344-.799.566-.532.85-1.31.85-2.332v-4.604H5.267v2.364h1.057v1.97c0 .29-.076.501-.228.633a.857.857 0 01-.58.197h-.374c-.483 0-.725-.277-.725-.83v-7.59c0-.552.242-.829.725-.829h.208c.484 0 .726.277.726.83v2.073h3.753v-2.343c0-1.023-.284-1.8-.85-2.333-.567-.532-1.348-.798-2.344-.798H3.836c-.995 0-1.773.266-2.333.798-.56.533-.84 1.31-.84 2.333v8.129c0 1.023.28 1.8.84 2.332.56.533 1.338.799 2.333.799h2.8zm10.597 0c.981 0 1.755-.266 2.322-.799.567-.532.85-1.31.85-2.332v-8.129c0-1.023-.283-1.8-.85-2.333-.567-.532-1.341-.798-2.322-.798h-2.904c-.995 0-1.772.266-2.332.798-.56.533-.84 1.31-.84 2.333v8.129c0 1.023.28 1.8.84 2.332.56.533 1.337.799 2.332.799h2.904zm-1.307-2.571h-.29c-.484 0-.726-.277-.726-.83v-7.59c0-.552.242-.829.726-.829h.29c.484 0 .726.277.726.83v7.59c0 .552-.242.829-.726.829zm12.048 2.426v-5.952h1.7v5.952h3.753v-14.1h-3.753v5.432h-1.7v-5.433H24.22v14.1h3.753zm12.877.145c1.009 0 1.79-.27 2.343-.809.553-.54.83-1.313.83-2.322V64.787h-3.754v10.866c0 .539-.242.809-.726.809h-.248c-.484 0-.726-.277-.726-.83V64.787h-3.753v11.115c0 1.009.28 1.783.84 2.322.56.54 1.337.809 2.332.809h2.862zm7.278-.145v-7.196l2.219 7.196h4.085v-14.1h-2.696v7.174l-2.219-7.175h-4.085v14.1h2.696zm13.686.145c.995 0 1.776-.266 2.343-.799.567-.532.85-1.31.85-2.332v-4.604h-4.562v2.364h1.058v1.97c0 .29-.076.501-.228.633a.857.857 0 01-.58.197h-.374c-.484 0-.726-.277-.726-.83v-7.59c0-.552.242-.829.726-.829h.207c.484 0 .726.277.726.83v2.073h3.753v-2.343c0-1.023-.283-1.8-.85-2.333-.567-.532-1.348-.798-2.343-.798h-2.8c-.995 0-1.772.266-2.332.798-.56.533-.84 1.31-.84 2.333v8.129c0 1.023.28 1.8.84 2.332.56.533 1.337.799 2.333.799h2.799zm8.357-.145V73.87H71l1.14 5.018h3.899l-1.597-5.558c.774-.539 1.161-1.396 1.161-2.57v-2.883c0-1.01-.28-1.777-.84-2.302-.56-.525-1.337-.788-2.332-.788h-6.014v14.1h3.754zm.953-7.548h-.953v-3.982h.953c.484 0 .726.27.726.81v2.363c0 .54-.242.809-.726.809zm11.965 7.548V74.45l2.903-9.663h-3.069l-1.285 5.309-1.245-5.309h-4.085l2.903 9.663v4.438h3.878zm7.3 0v-3.173h-3.63v3.173h3.63z"/></g></svg>